<mxfile host="app.diagrams.net" agent="Mozilla/5.0 (Windows NT 10.0; Win64; x64) AppleWebKit/537.36 (KHTML, like Gecko) Chrome/109.0.0.0 Safari/537.36" version="24.7.8">
  <diagram name="PÃ¡gina-1" id="Z8iDtRsAUI2TSejusen0">
    <mxGraphModel dx="990" dy="934" grid="0" gridSize="10" guides="1" tooltips="1" connect="1" arrows="1" fold="1" page="0" pageScale="1" pageWidth="827" pageHeight="1169" math="0" shadow="0">
      <root>
        <mxCell id="0" />
        <mxCell id="1" parent="0" />
        <mxCell id="l_0WaWTHFk2rep-ssLFK-2" style="edgeStyle=none;curved=1;rounded=0;orthogonalLoop=1;jettySize=auto;html=1;entryX=0;entryY=0.5;entryDx=0;entryDy=0;fontSize=12;startSize=8;endSize=8;" edge="1" parent="1" source="l_0WaWTHFk2rep-ssLFK-4" target="l_0WaWTHFk2rep-ssLFK-13">
          <mxGeometry relative="1" as="geometry" />
        </mxCell>
        <mxCell id="l_0WaWTHFk2rep-ssLFK-3" style="edgeStyle=none;curved=1;rounded=0;orthogonalLoop=1;jettySize=auto;html=1;entryX=0;entryY=0.5;entryDx=0;entryDy=0;fontSize=12;startSize=8;endSize=8;" edge="1" parent="1" source="l_0WaWTHFk2rep-ssLFK-4" target="l_0WaWTHFk2rep-ssLFK-11">
          <mxGeometry relative="1" as="geometry" />
        </mxCell>
        <mxCell id="l_0WaWTHFk2rep-ssLFK-4" value="Visitor" style="shape=umlActor;verticalLabelPosition=bottom;verticalAlign=top;html=1;" vertex="1" parent="1">
          <mxGeometry x="63" y="71" width="30" height="60" as="geometry" />
        </mxCell>
        <mxCell id="l_0WaWTHFk2rep-ssLFK-6" style="edgeStyle=none;curved=1;rounded=0;orthogonalLoop=1;jettySize=auto;html=1;entryX=1;entryY=0.5;entryDx=0;entryDy=0;fontSize=12;startSize=8;endSize=8;" edge="1" parent="1" source="l_0WaWTHFk2rep-ssLFK-10" target="l_0WaWTHFk2rep-ssLFK-11">
          <mxGeometry relative="1" as="geometry" />
        </mxCell>
        <mxCell id="l_0WaWTHFk2rep-ssLFK-7" style="edgeStyle=none;curved=1;rounded=0;orthogonalLoop=1;jettySize=auto;html=1;entryX=1;entryY=0.5;entryDx=0;entryDy=0;fontSize=12;startSize=8;endSize=8;" edge="1" parent="1" source="l_0WaWTHFk2rep-ssLFK-10" target="l_0WaWTHFk2rep-ssLFK-13">
          <mxGeometry relative="1" as="geometry" />
        </mxCell>
        <mxCell id="l_0WaWTHFk2rep-ssLFK-8" style="edgeStyle=none;curved=1;rounded=0;orthogonalLoop=1;jettySize=auto;html=1;entryX=0;entryY=0.5;entryDx=0;entryDy=0;fontSize=12;startSize=8;endSize=8;" edge="1" parent="1" source="l_0WaWTHFk2rep-ssLFK-10" target="l_0WaWTHFk2rep-ssLFK-15">
          <mxGeometry relative="1" as="geometry" />
        </mxCell>
        <mxCell id="l_0WaWTHFk2rep-ssLFK-9" style="edgeStyle=none;curved=1;rounded=0;orthogonalLoop=1;jettySize=auto;html=1;entryX=0;entryY=0.5;entryDx=0;entryDy=0;fontSize=12;startSize=8;endSize=8;" edge="1" parent="1" source="l_0WaWTHFk2rep-ssLFK-10" target="l_0WaWTHFk2rep-ssLFK-14">
          <mxGeometry relative="1" as="geometry" />
        </mxCell>
        <mxCell id="l_0WaWTHFk2rep-ssLFK-18" style="edgeStyle=none;curved=1;rounded=0;orthogonalLoop=1;jettySize=auto;html=1;fontSize=12;startSize=8;endSize=8;" edge="1" parent="1" source="l_0WaWTHFk2rep-ssLFK-10" target="l_0WaWTHFk2rep-ssLFK-16">
          <mxGeometry relative="1" as="geometry" />
        </mxCell>
        <mxCell id="l_0WaWTHFk2rep-ssLFK-20" style="edgeStyle=none;curved=1;rounded=0;orthogonalLoop=1;jettySize=auto;html=1;entryX=0;entryY=0;entryDx=0;entryDy=0;fontSize=12;startSize=8;endSize=8;" edge="1" parent="1" source="l_0WaWTHFk2rep-ssLFK-10" target="l_0WaWTHFk2rep-ssLFK-19">
          <mxGeometry relative="1" as="geometry" />
        </mxCell>
        <mxCell id="l_0WaWTHFk2rep-ssLFK-10" value="User" style="shape=umlActor;verticalLabelPosition=bottom;verticalAlign=top;html=1;" vertex="1" parent="1">
          <mxGeometry x="433" y="85" width="30" height="60" as="geometry" />
        </mxCell>
        <mxCell id="l_0WaWTHFk2rep-ssLFK-11" value="View Posts" style="ellipse;whiteSpace=wrap;html=1;" vertex="1" parent="1">
          <mxGeometry x="191" y="18" width="140" height="70" as="geometry" />
        </mxCell>
        <mxCell id="l_0WaWTHFk2rep-ssLFK-13" value="Login/Logout" style="ellipse;whiteSpace=wrap;html=1;" vertex="1" parent="1">
          <mxGeometry x="191" y="122" width="140" height="70" as="geometry" />
        </mxCell>
        <mxCell id="l_0WaWTHFk2rep-ssLFK-14" value="Remove Post" style="ellipse;whiteSpace=wrap;html=1;" vertex="1" parent="1">
          <mxGeometry x="557" y="121" width="140" height="70" as="geometry" />
        </mxCell>
        <mxCell id="l_0WaWTHFk2rep-ssLFK-15" value="Write&lt;span style=&quot;background-color: initial;&quot;&gt;&amp;nbsp;Post&lt;/span&gt;" style="ellipse;whiteSpace=wrap;html=1;" vertex="1" parent="1">
          <mxGeometry x="557" y="30" width="140" height="70" as="geometry" />
        </mxCell>
        <mxCell id="l_0WaWTHFk2rep-ssLFK-16" value="&lt;div&gt;&lt;span style=&quot;background-color: initial;&quot;&gt;User Page&lt;/span&gt;&lt;br&gt;&lt;/div&gt;" style="ellipse;whiteSpace=wrap;html=1;" vertex="1" parent="1">
          <mxGeometry x="557" y="-61" width="140" height="70" as="geometry" />
        </mxCell>
        <mxCell id="l_0WaWTHFk2rep-ssLFK-19" value="Edit Post" style="ellipse;whiteSpace=wrap;html=1;" vertex="1" parent="1">
          <mxGeometry x="557" y="212" width="140" height="70" as="geometry" />
        </mxCell>
        <mxCell id="l_0WaWTHFk2rep-ssLFK-21" style="edgeStyle=none;curved=1;rounded=0;orthogonalLoop=1;jettySize=auto;html=1;exitX=0;exitY=0.5;exitDx=0;exitDy=0;fontSize=12;startSize=8;endSize=8;" edge="1" parent="1" source="l_0WaWTHFk2rep-ssLFK-16" target="l_0WaWTHFk2rep-ssLFK-16">
          <mxGeometry relative="1" as="geometry" />
        </mxCell>
      </root>
    </mxGraphModel>
  </diagram>
</mxfile>
